<?xml version="1.0" encoding="UTF-8" standalone="no"?>
<svg
   version="1.1"
   id="Layer_1"
   x="0px"
   y="0px"
   viewBox="0 0 339 491.8"
   style="enable-background:new 0 0 339 491.8;"
   xml:space="preserve"
   sodipodi:docname="otromapa2222.svg"
   inkscape:version="1.1.1 (3bf5ae0d25, 2021-09-20)"
   xmlns:inkscape="http://www.inkscape.org/namespaces/inkscape"
   xmlns:sodipodi="http://sodipodi.sourceforge.net/DTD/sodipodi-0.dtd"
   xmlns:xlink="http://www.w3.org/1999/xlink"
   xmlns="http://www.w3.org/2000/svg"
   xmlns:svg="http://www.w3.org/2000/svg"><defs
   id="defs214410" /><sodipodi:namedview
   id="namedview214408"
   pagecolor="#ffffff"
   bordercolor="#666666"
   borderopacity="1.0"
   inkscape:pageshadow="2"
   inkscape:pageopacity="0.0"
   inkscape:pagecheckerboard="0"
   showgrid="false"
   inkscape:zoom="1.6510777"
   inkscape:cx="169.28337"
   inkscape:cy="245.59716"
   inkscape:window-width="1920"
   inkscape:window-height="1001"
   inkscape:window-x="-9"
   inkscape:window-y="-9"
   inkscape:window-maximized="1"
   inkscape:current-layer="Layer_1" />
<style
   type="text/css"
   id="style214324">
    @import url('https://fonts.googleapis.com/css?family=Roboto:300,400,700');
	.st0{fill:none;stroke:#C3C4C6;stroke-width:2;stroke-miterlimit:10;}
	.st1{opacity:0.5;fill:#383838;enable-background:new    ;}
	.st2{font-family:'Roboto';font-weight: 700;}
	.st3{font-size:14px;}
	.st4{font-size:16px;}
	.st5{opacity:0.5;fill:none;stroke:#FF513F;stroke-width:1.5;stroke-miterlimit:10;enable-background:new    ;}
	.st6{opacity:0.5;}
	.st7{font-family:'Roboto';font-weight: 300;font-style:italic;}
	.st8{font-size:10px;}
	.st9{opacity:0.5;enable-background:new    ;}
	.st10{font-family:'Roboto';font-weight: 300;}
	.st11{font-size:12px;}
	.st12{fill:none;stroke:url(#SVGID_1_);stroke-width:4;stroke-miterlimit:10;}
	.st13{fill:url(#SVGID_2_);}
	.st14{fill:url(#SVGID_3_);}
</style>
<image
   style="overflow:visible;enable-background:new"
   width="1200"
   height="1497"
   xlink:href="fondo22.png"
   transform="matrix(0.2825,0,0,0.2825,0,50.9391)"
   id="image214326">
</image>
<path
   class="st0"
   d="M190.4,183.6l5.1-2.1l1.8-2.1l2.6-4.1l2.1-3.2l2.6-0.5l2.9,0.2l4,2.4l5-2.6l6.9-2.6l2.1-4.1l3.7-1.5l4.7,1.5  l4.5-0.3l4.5,0.9l7.2,1.9"
   id="path214328" />

<g
   id="g214334">
	<text
   transform="translate(126.5872,240.5664)"
   class="st2 st4"
   id="text214332">Aeropuerto</text>
</g>
<path
   class="st5"
   d="M151.3,250.8l-42.6,15.8c-4.5,1.7-7,6.6-5.8,11.2l71.4,196.6"
   id="path214336" />
<path
   class="st5"
   d="M153.2,250.8l-44.4,15.8c-4.5,1.7-7,6.6-5.8,11.2l73.3,196.6"
   id="path214338" />
<path
   class="st5"
   d="M152.2,250.8l-44.4,15.8c-4.5,1.7-7,6.6-5.8,11.2l69.5,196.6"
   id="path214340" />
<path
   class="st5"
   d="M152.2,251.7l-44.4,15.8c-4.5,1.7-7,6.6-5.8,11.2l67.6,195.6"
   id="path214342" />
<path
   class="st5"
   d="M153.2,250.8l-44.4,15.8c-4.5,1.7-7,6.6-5.8,11.2l38.3,94.2c0.2,0.7,0.5,1.4,0.9,2l73.1,100.4"
   id="path214344" />
<path
   class="st5"
   d="M152.2,251.3l-44.4,15.8c-4.5,1.7-7,6.6-5.8,11.2l65.6,195.6"
   id="path214346" />
<g
   class="st6"
   id="g214352">
	<text
   class="st7 st8"
   id="text214348"
   x="262.4213"
   y="421">SUR</text>
	<text
   transform="translate(237.8213,433)"
   class="st7 st8"
   id="text214350">MAR DECHINA</text>
</g>
<text
   transform="matrix(1 0 0 1 141.8778 154.9927)"
   class="st9 st10 st11"
   id="text214354">SHENZHEN</text>
<text
   transform="matrix(1 0 0 1 182.2999 217.7319)"
   class="st9 st2 st4"
   id="text214356">HONG KONG</text>
<g
   class="st6"
   id="g214380">
	<g
   id="g214378">
		
			<linearGradient
   id="SVGID_1_"
   gradientUnits="userSpaceOnUse"
   x1="125.4"
   y1="6048.3057"
   x2="125.4"
   y2="6003.2886"
   gradientTransform="matrix(1 0 0 1 0 -5614)">
			<stop
   offset="0"
   style="stop-color:#000000"
   id="stop214358" />
			<stop
   offset="0.8777"
   style="stop-color:#000000;stop-opacity:0.1223"
   id="stop214360" />
			<stop
   offset="1"
   style="stop-color:#000000;stop-opacity:0"
   id="stop214362" />
		</linearGradient>
		<line
   class="st12"
   x1="120.2"
   y1="389.8"
   x2="130.6"
   y2="425.5"
   id="line214365" />
		<g
   id="g214376">
			
				<linearGradient
   id="SVGID_2_"
   gradientUnits="userSpaceOnUse"
   x1="130.05"
   y1="6048.3057"
   x2="130.05"
   y2="6003.2886"
   gradientTransform="matrix(1 0 0 1 0 -5614)">
				<stop
   offset="0"
   style="stop-color:#000000"
   id="stop214367" />
				<stop
   offset="0.8777"
   style="stop-color:#000000;stop-opacity:0.1223"
   id="stop214369" />
				<stop
   offset="1"
   style="stop-color:#000000;stop-opacity:0"
   id="stop214371" />
			</linearGradient>
			<polygon
   class="st13"
   points="124.3,425.5 133,433.7 135.8,422.1    "
   id="polygon214374" />
		</g>
	</g>
</g>
<path
   class="st5"
   d="M152.3,251.8L107,278.6c-4.8,1.8-7.5,7-6.2,11.9l75.5,184.4"
   id="path214382" />
<path
   class="st5"
   d="M151.3,251.8L106,278.6c-4.8,1.8-7.5,7-6.2,11.9l79.5,184.4"
   id="path214384" />
<path
   class="st5"
   d="M150.3,251.8L105,278.6c-4.8,1.8-7.5,7-6.2,11.9l79.5,184.4"
   id="path214386" />
<path
   class="st5"
   d="M152.3,251.8L107,278.6c-4.8,1.8-7.5,7-6.2,11.9l81.5,184.4"
   id="path214388" />
<path
   class="st5"
   d="M150.3,251.8L105,278.6c-4.8,1.8-7.5,7-6.2,11.9l79.5,184.4"
   id="path214390" />
<path
   class="st5"
   d="M150.3,251.8L105,278.6c-4.8,1.8-7.5,7-6.2,11.9l79.5,184.4"
   id="path214392" />
<path
   class="st5"
   d="M152.3,251.8l-30.5,23.1c-2.3,1.8-3.8,4.4-3.9,7.3l-1.8,27.6c-0.1,1.6,0.2,3.2,0.8,4.6l69.5,160.4"
   id="path214394" />
<path
   class="st5"
   d="M152.3,251.8L107,278.6c-4.8,1.8-7.5,7-6.2,11.9l73.5,184.4"
   id="path214396" />
<linearGradient
   id="SVGID_3_"
   gradientUnits="userSpaceOnUse"
   x1="176.15"
   y1="6093.2998"
   x2="176.15"
   y2="6025.7998"
   gradientTransform="matrix(1 0 0 1 0 -5614)">
	<stop
   offset="0"
   style="stop-color:#FFFFFF"
   id="stop214398" />
	<stop
   offset="1"
   style="stop-color:#FFFFFF;stop-opacity:0"
   id="stop214400" />
</linearGradient>
<rect
   x="114.2"
   y="411.8"
   class="st14"
   width="123.9"
   height="67.5"
   id="rect214403" />
<circle
   cx="152.3"
   cy="250.9"
   r="3"
   id="circle214405" />
</svg>
