<?xml version="1.0" encoding="UTF-8" standalone="no"?>
<!-- Generator: Adobe Illustrator 23.0.6, SVG Export Plug-In . SVG Version: 6.00 Build 0)  -->

<svg
   version="1.1"
   id="Layer_1"
   x="0px"
   y="0px"
   viewBox="0 0 600 222.5"
   style="enable-background:new 0 0 600 222.5;"
   xml:space="preserve"
   sodipodi:docname="timeline.svg"
   inkscape:version="1.1.1 (3bf5ae0d25, 2021-09-20)"
   xmlns:inkscape="http://www.inkscape.org/namespaces/inkscape"
   xmlns:sodipodi="http://sodipodi.sourceforge.net/DTD/sodipodi-0.dtd"
   xmlns="http://www.w3.org/2000/svg"
   xmlns:svg="http://www.w3.org/2000/svg"><defs
   id="defs493"><rect
     x="37.961336"
     y="107.20562"
     width="3.1634446"
     height="47.803163"
     id="rect32255" /></defs><sodipodi:namedview
   id="namedview491"
   pagecolor="#ffffff"
   bordercolor="#666666"
   borderopacity="1.0"
   inkscape:pageshadow="2"
   inkscape:pageopacity="0.0"
   inkscape:pagecheckerboard="0"
   showgrid="false"
   inkscape:zoom="2.845"
   inkscape:cx="284.18278"
   inkscape:cy="112.12654"
   inkscape:window-width="1586"
   inkscape:window-height="1030"
   inkscape:window-x="42"
   inkscape:window-y="23"
   inkscape:window-maximized="0"
   inkscape:current-layer="g484" />
<style
   type="text/css"
   id="style252">
    @import url('https://fonts.googleapis.com/css?family=Roboto:300,400,700');
	.st0{opacity:0.5;fill:#FF513F;enable-background:new    ;}
	.st1{fill:none;stroke:#000000;stroke-width:0.5;stroke-miterlimit:10;}
	.st2{opacity:0.4;fill:none;stroke:#000000;stroke-width:0.5;stroke-miterlimit:10;enable-background:new    ;}
	.st3{fill:#383838;stroke:#FFFFFF;stroke-miterlimit:10;}
	.st4{opacity:0.5;}
	.st5{fill:#383838;}
	.st6{font-family:'Roboto';font-weight: 300;}
	.st7{font-size:12px;}
	.st8{fill:#4D4D4D;}
	.st9{font-size:14px;}
	.st10{font-family:'Roboto';font-weight: 700;}
	.st11{fill:none;stroke:#383838;stroke-width:0.5;stroke-miterlimit:10;}
	.st12{fill:#FFFFFF;stroke:#383838;stroke-miterlimit:10;}
</style>
<rect
   x="359.3"
   y="91.2"
   class="st0"
   width="112.3"
   height="11.5"
   id="rect254" />
<g
   id="g440">
	<line
   class="st1"
   x1="396.4"
   y1="107"
   x2="396.4"
   y2="87"
   id="line256" />
	<line
   class="st2"
   x1="583.3"
   y1="99.8"
   x2="583.3"
   y2="94.2"
   id="line258" />
	<line
   class="st2"
   x1="577.1"
   y1="99.8"
   x2="577.1"
   y2="94.2"
   id="line260" />
	<line
   class="st2"
   x1="570.9"
   y1="99.8"
   x2="570.9"
   y2="94.2"
   id="line262" />
	<line
   class="st2"
   x1="564.7"
   y1="99.8"
   x2="564.7"
   y2="94.2"
   id="line264" />
	<line
   class="st2"
   x1="558.4"
   y1="99.8"
   x2="558.4"
   y2="94.2"
   id="line266" />
	<line
   class="st2"
   x1="552.1"
   y1="99.8"
   x2="552.1"
   y2="94.2"
   id="line268" />
	<line
   class="st2"
   x1="545.9"
   y1="99.8"
   x2="545.9"
   y2="94.2"
   id="line270" />
	<line
   class="st2"
   x1="539.7"
   y1="99.8"
   x2="539.7"
   y2="94.2"
   id="line272" />
	<line
   class="st2"
   x1="533.5"
   y1="99.8"
   x2="533.5"
   y2="94.2"
   id="line274" />
	<line
   class="st2"
   x1="527.3"
   y1="99.8"
   x2="527.3"
   y2="94.2"
   id="line276" />
	<line
   class="st2"
   x1="521.1"
   y1="99.8"
   x2="521.1"
   y2="94.2"
   id="line278" />
	<line
   class="st2"
   x1="514.7"
   y1="99.8"
   x2="514.7"
   y2="94.2"
   id="line280" />
	<line
   class="st2"
   x1="508.5"
   y1="99.8"
   x2="508.5"
   y2="94.2"
   id="line282" />
	<line
   class="st2"
   x1="502.3"
   y1="99.8"
   x2="502.3"
   y2="94.2"
   id="line284" />
	<line
   class="st2"
   x1="496.1"
   y1="99.8"
   x2="496.1"
   y2="94.2"
   id="line286" />
	<line
   class="st2"
   x1="489.9"
   y1="99.8"
   x2="489.9"
   y2="94.2"
   id="line288" />
	<line
   class="st2"
   x1="483.7"
   y1="99.8"
   x2="483.7"
   y2="94.2"
   id="line290" />
	<line
   class="st2"
   x1="477.4"
   y1="99.8"
   x2="477.4"
   y2="94.2"
   id="line292" />
	<line
   class="st2"
   x1="471.1"
   y1="99.8"
   x2="471.1"
   y2="94.2"
   id="line294" />
	<line
   class="st2"
   x1="464.9"
   y1="99.8"
   x2="464.9"
   y2="94.2"
   id="line296" />
	<line
   class="st2"
   x1="458.7"
   y1="99.8"
   x2="458.7"
   y2="94.2"
   id="line298" />
	<line
   class="st2"
   x1="452.5"
   y1="99.8"
   x2="452.5"
   y2="94.2"
   id="line300" />
	<line
   class="st2"
   x1="446.3"
   y1="99.8"
   x2="446.3"
   y2="94.2"
   id="line302" />
	<line
   class="st2"
   x1="440"
   y1="99.8"
   x2="440"
   y2="94.2"
   id="line304" />
	<line
   class="st2"
   x1="433.8"
   y1="99.8"
   x2="433.8"
   y2="94.2"
   id="line306" />
	<line
   class="st2"
   x1="427.5"
   y1="99.8"
   x2="427.5"
   y2="94.2"
   id="line308" />
	<line
   class="st2"
   x1="421.3"
   y1="99.8"
   x2="421.3"
   y2="94.2"
   id="line310" />
	<line
   class="st2"
   x1="415.1"
   y1="99.8"
   x2="415.1"
   y2="94.2"
   id="line312" />
	<line
   class="st2"
   x1="408.9"
   y1="99.8"
   x2="408.9"
   y2="94.2"
   id="line314" />
	<line
   class="st2"
   x1="402.6"
   y1="99.8"
   x2="402.6"
   y2="94.2"
   id="line316" />
	<line
   class="st1"
   x1="203.2"
   y1="107"
   x2="203.2"
   y2="87"
   id="line318" />
	<line
   class="st2"
   x1="390.2"
   y1="99.8"
   x2="390.2"
   y2="94.2"
   id="line320" />
	<line
   class="st2"
   x1="383.9"
   y1="99.8"
   x2="383.9"
   y2="94.2"
   id="line322" />
	<line
   class="st2"
   x1="377.7"
   y1="99.8"
   x2="377.7"
   y2="94.2"
   id="line324" />
	<line
   class="st2"
   x1="371.5"
   y1="99.8"
   x2="371.5"
   y2="94.2"
   id="line326" />
	<line
   class="st2"
   x1="365.2"
   y1="99.8"
   x2="365.2"
   y2="94.2"
   id="line328" />
	<line
   class="st2"
   x1="359"
   y1="99.8"
   x2="359"
   y2="94.2"
   id="line330" />
	<line
   class="st2"
   x1="352.8"
   y1="99.8"
   x2="352.8"
   y2="94.2"
   id="line332" />
	<line
   class="st2"
   x1="346.6"
   y1="99.8"
   x2="346.6"
   y2="94.2"
   id="line334" />
	<line
   class="st2"
   x1="340.3"
   y1="99.8"
   x2="340.3"
   y2="94.2"
   id="line336" />
	<line
   class="st2"
   x1="334.1"
   y1="99.8"
   x2="334.1"
   y2="94.2"
   id="line338" />
	<line
   class="st2"
   x1="327.8"
   y1="99.8"
   x2="327.8"
   y2="94.2"
   id="line340" />
	<line
   class="st2"
   x1="321.6"
   y1="99.8"
   x2="321.6"
   y2="94.2"
   id="line342" />
	<line
   class="st2"
   x1="315.4"
   y1="99.8"
   x2="315.4"
   y2="94.2"
   id="line344" />
	<line
   class="st2"
   x1="309.2"
   y1="99.8"
   x2="309.2"
   y2="94.2"
   id="line346" />
	<line
   class="st2"
   x1="303"
   y1="99.8"
   x2="303"
   y2="94.2"
   id="line348" />
	<line
   class="st2"
   x1="296.7"
   y1="99.8"
   x2="296.7"
   y2="94.2"
   id="line350" />
	<line
   class="st2"
   x1="290.4"
   y1="99.8"
   x2="290.4"
   y2="94.2"
   id="line352" />
	<line
   class="st2"
   x1="284.2"
   y1="99.8"
   x2="284.2"
   y2="94.2"
   id="line354" />
	<line
   class="st2"
   x1="278"
   y1="99.8"
   x2="278"
   y2="94.2"
   id="line356" />
	<line
   class="st2"
   x1="271.8"
   y1="99.8"
   x2="271.8"
   y2="94.2"
   id="line358" />
	<line
   class="st2"
   x1="265.6"
   y1="99.8"
   x2="265.6"
   y2="94.2"
   id="line360" />
	<line
   class="st2"
   x1="259.4"
   y1="99.8"
   x2="259.4"
   y2="94.2"
   id="line362" />
	<line
   class="st2"
   x1="253"
   y1="99.8"
   x2="253"
   y2="94.2"
   id="line364" />
	<line
   class="st2"
   x1="246.8"
   y1="99.8"
   x2="246.8"
   y2="94.2"
   id="line366" />
	<line
   class="st2"
   x1="240.6"
   y1="99.8"
   x2="240.6"
   y2="94.2"
   id="line368" />
	<line
   class="st2"
   x1="234.4"
   y1="99.8"
   x2="234.4"
   y2="94.2"
   id="line370" />
	<line
   class="st2"
   x1="228.2"
   y1="99.8"
   x2="228.2"
   y2="94.2"
   id="line372" />
	<line
   class="st2"
   x1="222"
   y1="99.8"
   x2="222"
   y2="94.2"
   id="line374" />
	<line
   class="st2"
   x1="215.7"
   y1="99.8"
   x2="215.7"
   y2="94.2"
   id="line376" />
	<line
   class="st2"
   x1="209.4"
   y1="99.8"
   x2="209.4"
   y2="94.2"
   id="line378" />
	<line
   class="st1"
   x1="16.3"
   y1="107"
   x2="16.3"
   y2="87"
   id="line380" />
	<line
   class="st2"
   x1="197"
   y1="99.8"
   x2="197"
   y2="94.2"
   id="line382" />
	<line
   class="st2"
   x1="190.8"
   y1="99.8"
   x2="190.8"
   y2="94.2"
   id="line384" />
	<line
   class="st2"
   x1="184.6"
   y1="99.8"
   x2="184.6"
   y2="94.2"
   id="line386" />
	<line
   class="st2"
   x1="178.3"
   y1="99.8"
   x2="178.3"
   y2="94.2"
   id="line388" />
	<line
   class="st2"
   x1="172.1"
   y1="99.8"
   x2="172.1"
   y2="94.2"
   id="line390" />
	<line
   class="st2"
   x1="165.8"
   y1="99.8"
   x2="165.8"
   y2="94.2"
   id="line392" />
	<line
   class="st2"
   x1="159.6"
   y1="99.8"
   x2="159.6"
   y2="94.2"
   id="line394" />
	<line
   class="st2"
   x1="153.4"
   y1="99.8"
   x2="153.4"
   y2="94.2"
   id="line396" />
	<line
   class="st2"
   x1="147.2"
   y1="99.8"
   x2="147.2"
   y2="94.2"
   id="line398" />
	<line
   class="st2"
   x1="140.9"
   y1="99.8"
   x2="140.9"
   y2="94.2"
   id="line400" />
	<line
   class="st2"
   x1="134.7"
   y1="99.8"
   x2="134.7"
   y2="94.2"
   id="line402" />
	<line
   class="st2"
   x1="128.5"
   y1="99.8"
   x2="128.5"
   y2="94.2"
   id="line404" />
	<line
   class="st2"
   x1="122.2"
   y1="99.8"
   x2="122.2"
   y2="94.2"
   id="line406" />
	<line
   class="st2"
   x1="116"
   y1="99.8"
   x2="116"
   y2="94.2"
   id="line408" />
	<line
   class="st2"
   x1="109.8"
   y1="99.8"
   x2="109.8"
   y2="94.2"
   id="line410" />
	<line
   class="st2"
   x1="103.5"
   y1="99.8"
   x2="103.5"
   y2="94.2"
   id="line412" />
	<line
   class="st2"
   x1="97.3"
   y1="99.8"
   x2="97.3"
   y2="94.2"
   id="line414" />
	<line
   class="st2"
   x1="91.1"
   y1="99.8"
   x2="91.1"
   y2="94.2"
   id="line416" />
	<line
   class="st2"
   x1="84.9"
   y1="99.8"
   x2="84.9"
   y2="94.2"
   id="line418" />
	<line
   class="st2"
   x1="78.6"
   y1="99.8"
   x2="78.6"
   y2="94.2"
   id="line420" />
	<line
   class="st2"
   x1="72.4"
   y1="99.8"
   x2="72.4"
   y2="94.2"
   id="line422" />
	<line
   class="st2"
   x1="66.2"
   y1="99.8"
   x2="66.2"
   y2="94.2"
   id="line424" />
	<line
   class="st2"
   x1="59.9"
   y1="99.8"
   x2="59.9"
   y2="94.2"
   id="line426" />
	<line
   class="st2"
   x1="53.7"
   y1="99.8"
   x2="53.7"
   y2="94.2"
   id="line428" />
	<line
   class="st2"
   x1="47.5"
   y1="99.8"
   x2="47.5"
   y2="94.2"
   id="line430" />
	<line
   class="st2"
   x1="41.3"
   y1="99.8"
   x2="41.3"
   y2="94.2"
   id="line432" />
	<line
   class="st2"
   x1="35"
   y1="99.8"
   x2="35"
   y2="94.2"
   id="line434" />
	<line
   class="st2"
   x1="28.8"
   y1="99.8"
   x2="28.8"
   y2="94.2"
   id="line436" />
	<line
   class="st2"
   x1="22.5"
   y1="99.8"
   x2="22.5"
   y2="94.2"
   id="line438" />
</g>
<circle
   class="st3"
   cx="359.1"
   cy="97"
   r="4.8"
   id="circle442" />
<circle
   class="st3"
   cx="446.3"
   cy="97"
   r="4.8"
   id="circle444" />
<circle
   class="st3"
   cx="452.5"
   cy="97"
   r="4.8"
   id="circle446" />
<circle
   class="st3"
   cx="458.7"
   cy="97"
   r="4.8"
   id="circle448" />
<circle
   class="st3"
   cx="464.9"
   cy="97"
   r="4.8"
   id="circle450" />
<circle
   class="st3"
   cx="471.1"
   cy="97"
   r="4.8"
   id="circle452" />
<g
   class="st4"
   id="g460">
	<text
   transform="translate(91.0819,72.6316)"
   class="st5 st6 st7"
   id="text454">JUNIO</text>
	<text
   transform="translate(282.3752,124.4519)"
   class="st5 st6 st7"
   id="text456">JULIO</text>
	<text
   transform="translate(478.0454,72.6316)"
   class="st5 st6 st7"
   id="text458">AGOSTO</text>
</g>
<g
   id="g466">
	<text
   transform="translate(20.7585,148.8269)"
   class="st8 st6 st9"
   id="text462">Inicio de las protestas</text>
	<text
   class="st8 st6 st9"
   id="text464"
   x="21.0585"
   y="165.62669">por el proyecto de ley</text><text
   class="st8 st6 st9"
   id="text464-3"
   x="42.133144"
   y="183.57272"
   style="font-weight:300;font-size:14px;font-family:Roboto;fill:#4d4d4d">de extradición</text>
</g>
<text
   transform="translate(299.9235,27.303)"
   class="st8 st10 st9"
   id="text468">Primera demostración</text>
<text
   transform="translate(309.6235,44.103)"
   class="st8 st10 st9"
   id="text470">en la sala de llegada</text>
<line
   class="st11"
   x1="65.6"
   y1="133"
   x2="65.6"
   y2="98.2"
   id="line472" />
<line
   class="st11"
   x1="361.8"
   y1="93.6"
   x2="361.8"
   y2="50.2"
   id="line474" />
<g
   id="g484">
	<text
   transform="translate(389.9863,148.8276)"
   class="st8 st10 st9"
   id="text476">5 días continuos de </text>
	<text
   class="st8 st10 st9"
   id="text478"
   x="384.78629"
   y="165.6277">manifestaciones que </text>
	<text
   class="st8 st10 st9"
   id="text480"
   x="382.68631"
   y="182.4277">terminan con más de </text>
	<text
   class="st8 st10 st9"
   id="text482"
   x="375.4863"
   y="199.22749">300 vuelos cancelados</text>
<text
   xml:space="preserve"
   style="font-style:normal;font-weight:normal;font-size:40px;line-height:1.25;font-family:sans-serif;fill:#000000;fill-opacity:1;stroke:none"
   x="353.95432"
   y="207.02988"
   id="text167278"><tspan
     sodipodi:role="line"
     id="tspan167276"></tspan></text></g>
<line
   class="st11"
   x1="457.5"
   y1="133"
   x2="457.5"
   y2="101.6"
   id="line486" />
<circle
   class="st12"
   cx="66.3"
   cy="97"
   r="4.8"
   id="circle488" />
<text
   xml:space="preserve"
   id="text32253"
   style="fill:black;fill-opacity:1;line-height:1.25;stroke:none;font-family:sans-serif;font-style:normal;font-weight:normal;font-size:40px;white-space:pre;shape-inside:url(#rect32255)" /><text
   xml:space="preserve"
   style="font-style:normal;font-weight:normal;font-size:13.3333px;line-height:1.25;font-family:sans-serif;fill:#999999;fill-opacity:1;stroke:none"
   x="470.73157"
   y="74.725906"
   id="text98996-2"><tspan
     sodipodi:role="line"
     id="tspan98994-1"
     x="470.73157"
     y="74.725906"
     style="font-size:13.3333px;fill:#999999" /></text></svg>
